<svg id="Layer_3" data-name="Layer 3" xmlns="http://www.w3.org/2000/svg" viewBox="0 0 1348 2875"><defs><style>.cls-1{opacity:0.3;}.cls-10,.cls-11,.cls-12,.cls-13,.cls-14,.cls-15,.cls-16,.cls-17,.cls-18,.cls-19,.cls-2,.cls-24,.cls-25,.cls-27,.cls-28,.cls-29,.cls-3,.cls-31,.cls-32,.cls-33,.cls-4,.cls-5,.cls-6,.cls-7,.cls-8,.cls-9{fill:none;}.cls-10,.cls-11,.cls-12,.cls-13,.cls-14,.cls-15,.cls-16,.cls-17,.cls-18,.cls-19,.cls-2,.cls-20,.cls-21,.cls-25,.cls-26,.cls-27,.cls-28,.cls-29,.cls-3,.cls-31,.cls-32,.cls-33,.cls-4,.cls-5,.cls-6,.cls-7,.cls-8,.cls-9{stroke:#0073ae;}.cls-10,.cls-11,.cls-12,.cls-13,.cls-14,.cls-15,.cls-16,.cls-17,.cls-18,.cls-19,.cls-2,.cls-24,.cls-25,.cls-27,.cls-28,.cls-3,.cls-31,.cls-4,.cls-5,.cls-6,.cls-7,.cls-8,.cls-9{stroke-linecap:round;stroke-linejoin:round;}.cls-10,.cls-11,.cls-12,.cls-13,.cls-14,.cls-15,.cls-16,.cls-17,.cls-18,.cls-19,.cls-2,.cls-3,.cls-4,.cls-5,.cls-6,.cls-7,.cls-8,.cls-9{stroke-width:3px;}.cls-3{stroke-dasharray:0 6.67;}.cls-4{stroke-dasharray:0 8;}.cls-5{stroke-dasharray:0 6.63;}.cls-6{stroke-dasharray:0 7.33;}.cls-7{stroke-dasharray:0 6.92;}.cls-8{stroke-dasharray:0 7.12;}.cls-9{stroke-dasharray:0 6.25;}.cls-10{stroke-dasharray:0 7.07;}.cls-11{stroke-dasharray:0 7.25;}.cls-12{stroke-dasharray:0 7.4;}.cls-13{stroke-dasharray:0 6.9;}.cls-14{stroke-dasharray:0 7.2;}.cls-15{stroke-dasharray:0 7.06;}.cls-16{stroke-dasharray:0 7;}.cls-17{stroke-dasharray:0 7.67;}.cls-18{stroke-dasharray:0 6.87;}.cls-19{stroke-dasharray:0 6;}.cls-20{fill:#b2d5e6;}.cls-20,.cls-21,.cls-22,.cls-26,.cls-29,.cls-32,.cls-33{stroke-miterlimit:10;}.cls-20,.cls-21,.cls-22,.cls-24,.cls-25,.cls-27,.cls-28,.cls-29,.cls-32{stroke-width:2px;}.cls-21{fill:#fff;}.cls-22{fill:#ffdbb2;stroke:#f80;}.cls-23,.cls-26,.cls-30{fill:#0073ae;}.cls-23{opacity:0.5;}.cls-24{stroke:#fff;}.cls-25{opacity:0.2;}.cls-26{stroke-width:0.75px;}.cls-28,.cls-32{fill-rule:evenodd;}.cls-31,.cls-33{stroke-width:1.75px;}</style></defs><title>Artboard 1</title><g class="cls-1"><line class="cls-2" x1="496.5" y1="513.5" x2="496.5" y2="513.5"/><line class="cls-3" x1="503.17" y1="513.5" x2="513.17" y2="513.5"/><line class="cls-2" x1="516.5" y1="513.5" x2="516.5" y2="513.5"/><line class="cls-4" x1="516.5" y1="521.5" x2="516.5" y2="525.5"/><line class="cls-2" x1="516.5" y1="529.5" x2="516.5" y2="529.5"/><line class="cls-5" x1="523.13" y1="529.5" x2="566.19" y2="529.5"/><line class="cls-2" x1="569.5" y1="529.5" x2="569.5" y2="529.5"/></g><g class="cls-1"><line class="cls-2" x1="381.5" y1="533.5" x2="381.5" y2="533.5"/><line class="cls-6" x1="388.83" y1="533.5" x2="399.83" y2="533.5"/><line class="cls-2" x1="403.5" y1="533.5" x2="403.5" y2="533.5"/><line class="cls-4" x1="403.5" y1="541.5" x2="403.5" y2="553.5"/><line class="cls-2" x1="403.5" y1="557.5" x2="403.5" y2="557.5"/><line class="cls-7" x1="410.42" y1="557.5" x2="566.04" y2="557.5"/><line class="cls-2" x1="569.5" y1="557.5" x2="569.5" y2="557.5"/></g><g class="cls-1"><line class="cls-2" x1="342.5" y1="606.5" x2="342.5" y2="606.5"/><line class="cls-8" x1="349.62" y1="606.5" x2="459.94" y2="606.5"/><line class="cls-2" x1="463.5" y1="606.5" x2="463.5" y2="606.5"/><line class="cls-9" x1="463.5" y1="600.25" x2="463.5" y2="584.63"/><line class="cls-2" x1="463.5" y1="581.5" x2="463.5" y2="581.5"/><line class="cls-10" x1="470.57" y1="581.5" x2="565.97" y2="581.5"/><line class="cls-2" x1="569.5" y1="581.5" x2="569.5" y2="581.5"/></g><g class="cls-1"><line class="cls-2" x1="441.5" y1="647.5" x2="441.5" y2="647.5"/><line class="cls-11" x1="448.75" y1="647.5" x2="495.88" y2="647.5"/><line class="cls-2" x1="499.5" y1="647.5" x2="499.5" y2="647.5"/><line class="cls-12" x1="499.5" y1="640.1" x2="499.5" y2="614.2"/><line class="cls-2" x1="499.5" y1="610.5" x2="499.5" y2="610.5"/><line class="cls-13" x1="506.4" y1="610.5" x2="565.05" y2="610.5"/><line class="cls-2" x1="568.5" y1="610.5" x2="568.5" y2="610.5"/></g><g class="cls-1"><line class="cls-2" x1="873.5" y1="513.5" x2="873.5" y2="513.5"/><line class="cls-3" x1="866.83" y1="513.5" x2="816.83" y2="513.5"/><line class="cls-2" x1="813.5" y1="513.5" x2="813.5" y2="513.5"/><line class="cls-14" x1="813.5" y1="520.7" x2="813.5" y2="545.9"/><line class="cls-2" x1="813.5" y1="549.5" x2="813.5" y2="549.5"/><line class="cls-3" x1="806.83" y1="549.5" x2="756.83" y2="549.5"/><line class="cls-2" x1="753.5" y1="549.5" x2="753.5" y2="549.5"/></g><g class="cls-1"><line class="cls-2" x1="964.5" y1="553.5" x2="964.5" y2="553.5"/><line class="cls-15" x1="957.44" y1="553.5" x2="855.03" y2="553.5"/><line class="cls-2" x1="851.5" y1="553.5" x2="851.5" y2="553.5"/><line class="cls-4" x1="851.5" y1="561.5" x2="851.5" y2="573.5"/><line class="cls-2" x1="851.5" y1="577.5" x2="851.5" y2="577.5"/><line class="cls-16" x1="844.5" y1="577.5" x2="757" y2="577.5"/><line class="cls-2" x1="753.5" y1="577.5" x2="753.5" y2="577.5"/></g><g class="cls-1"><line class="cls-2" x1="934.5" y1="629.5" x2="934.5" y2="629.5"/><line class="cls-17" x1="926.83" y1="629.5" x2="915.33" y2="629.5"/><line class="cls-2" x1="911.5" y1="629.5" x2="911.5" y2="629.5"/><line class="cls-16" x1="911.5" y1="622.5" x2="911.5" y2="605"/><line class="cls-2" x1="911.5" y1="601.5" x2="911.5" y2="601.5"/><line class="cls-18" x1="904.63" y1="601.5" x2="756.93" y2="601.5"/><line class="cls-2" x1="753.5" y1="601.5" x2="753.5" y2="601.5"/></g><g class="cls-1"><line class="cls-2" x1="814.5" y1="646.5" x2="814.5" y2="646.5"/><line class="cls-19" x1="808.5" y1="646.5" x2="799.5" y2="646.5"/><line class="cls-2" x1="796.5" y1="646.5" x2="796.5" y2="646.5"/><line class="cls-4" x1="796.5" y1="638.5" x2="796.5" y2="634.5"/><line class="cls-2" x1="796.5" y1="630.5" x2="796.5" y2="630.5"/><line class="cls-6" x1="789.17" y1="630.5" x2="756.17" y2="630.5"/><line class="cls-2" x1="752.5" y1="630.5" x2="752.5" y2="630.5"/></g><rect class="cls-20" x="582.45" y="498.39" width="155.89" height="135.68" rx="3.95" ry="3.95"/><rect class="cls-20" x="637.47" y="498.39" width="100.87" height="135.68" rx="3.95" ry="3.95"/><path class="cls-21" d="M738.33,502.05a3.77,3.77,0,0,0-4-3.56h-93a3.77,3.77,0,0,0-4,3.56v39.11c0,.18,0,.35,0,.52,0,12.65,22.59,22.9,50.45,22.9s50.45-10.25,50.45-22.9a10.61,10.61,0,0,0-.06-1.1l.07-.17Z"/><rect class="cls-22" x="655.05" y="509.5" width="65.65" height="39.2" rx="3.01" ry="3.01"/><rect class="cls-21" x="662.32" y="569.83" width="11.57" height="11.57" rx="3.2" ry="3.2"/><rect class="cls-21" x="681.63" y="569.83" width="11.57" height="11.57" rx="3.2" ry="3.2"/><rect class="cls-21" x="700.95" y="569.83" width="11.57" height="11.57" rx="3.2" ry="3.2"/><rect class="cls-21" x="662.32" y="589.15" width="11.57" height="11.57" rx="3.2" ry="3.2"/><rect class="cls-21" x="681.63" y="589.15" width="11.57" height="11.57" rx="3.2" ry="3.2"/><rect class="cls-21" x="700.95" y="589.15" width="11.57" height="11.57" rx="3.2" ry="3.2"/><rect class="cls-21" x="662.32" y="608.46" width="11.57" height="11.57" rx="3.2" ry="3.2"/><rect class="cls-21" x="681.63" y="608.46" width="11.57" height="11.57" rx="3.2" ry="3.2"/><rect class="cls-21" x="700.95" y="608.46" width="11.57" height="11.57" rx="3.2" ry="3.2"/><path class="cls-23" d="M595.65,626.15a17.47,17.47,0,0,0,0,7.76h34.5a17.47,17.47,0,0,0,0-7.76c-1.5-14.09-5.85-64.33,2.46-107.9a21.52,21.52,0,0,0-1.27-19.87H594.45a21.51,21.51,0,0,0-1.27,19.87C601.5,561.83,597.14,612.06,595.65,626.15Z"/><path class="cls-23" d="M738.32,501.89a3.38,3.38,0,0,0-1-2.25,3.94,3.94,0,0,0-2.88-1.25h-5.57V634.06h5.57a4,4,0,0,0,4-4V502.34A4,4,0,0,0,738.32,501.89Z"/><path class="cls-21" d="M629,518.25a21.55,21.55,0,1,0-39.41,0c8.32,43.57,4,93.81,2.46,107.9a17.68,17.68,0,1,0,34.48,0C625.06,612.06,620.7,561.83,629,518.25Z"/><line class="cls-24" x1="683.36" y1="539.23" x2="681" y2="542"/><line class="cls-24" x1="704" y1="515" x2="686.41" y2="535.65"/><line class="cls-24" x1="692" y1="517" x2="679" y2="532"/><circle class="cls-25" cx="903.5" cy="513.5" r="24.5"/><circle class="cls-25" cx="466.5" cy="513.5" r="24.5"/><circle class="cls-25" cx="351.5" cy="533.5" r="24.5"/><circle class="cls-25" cx="312.5" cy="606.5" r="24.5"/><circle class="cls-25" cx="412.5" cy="647.5" r="24.5"/><circle class="cls-25" cx="993.5" cy="552.5" r="24.5"/><circle class="cls-25" cx="963.5" cy="630.5" r="24.5"/><circle class="cls-25" cx="843.5" cy="646.5" r="24.5"/><path class="cls-26" d="M903.5,497.59a15.91,15.91,0,1,0,15.91,15.91A15.93,15.93,0,0,0,903.5,497.59ZM918,509.91a1.35,1.35,0,0,0-1,.64,1.44,1.44,0,0,0,.12,1.51,1.84,1.84,0,0,1,.22.47l-.14.11a1.75,1.75,0,0,0-.79,1.14l-.28.18a2.71,2.71,0,0,0-1.6,3c.3,1.56,0,2.59-2.25,5.64-.69.93-1.33,1.28-1.69,1.29a.52.52,0,0,1-.42-.19,4.18,4.18,0,0,1-.39-3c.67-4.86-1.51-6.18-1.76-6.31a.93.93,0,0,0-.84,0,4.79,4.79,0,0,1-1.86.43c-1.28,0-2.1-.75-2.5-2.3-.54-2.1.48-2.86,1.48-3.6.6-.45,1.22-.91,1.29-1.68a1.78,1.78,0,0,0-.58-1.39,1,1,0,0,1-.36-.76,1.44,1.44,0,0,1,.56-.81c1.12-.11,2.49-.43,3-1.25a1.39,1.39,0,0,0,.08-1.28v0l.21-.06.28-.09a3.16,3.16,0,0,0,1.7-1.26A15,15,0,0,1,918,509.91ZM903.5,498.6c.44,0,.88,0,1.31.06a1.39,1.39,0,0,1,0,.15c0,.13-.24.26-.51.34l-.32.07a2.47,2.47,0,0,0-1.64.94,3.09,3.09,0,0,1-.4.39,1.26,1.26,0,0,1-1.2.15,2.07,2.07,0,0,1-.23-1.51l-.62-.15A14.87,14.87,0,0,1,903.5,498.6ZM897,500.09a2.55,2.55,0,0,0,.56,2.36,4.38,4.38,0,0,0,.68.56l.34.26a1.69,1.69,0,0,1,.7,1.38,6.45,6.45,0,0,1-1.13,1.57,6.69,6.69,0,0,0-.73.94c-.06.11-.13.25-.64,0a1.91,1.91,0,0,1-.42-.29,1.7,1.7,0,0,0-1.11-.48A1.87,1.87,0,0,0,894,507l-.13.11a6.81,6.81,0,0,1-2.09,1l-.73.28a5.79,5.79,0,0,0-1.87,1.14A15,15,0,0,1,897,500.09ZM888.6,513.5c0-.09,0-.18,0-.26a1.62,1.62,0,0,0,1.41.62c.42,0,1,0,2.23,1.08a15.15,15.15,0,0,0,3.69,2.37c1,.49,1.27.65,1.38,1a2,2,0,0,1-.21,1.48,3.5,3.5,0,0,0-.36,1.89l0,0a3.38,3.38,0,0,0-1.83,2.94c0,.28-.07.58-.1.89A14.89,14.89,0,0,1,888.6,513.5Zm14.9,14.9a14.81,14.81,0,0,1-7.75-2.18c0-.49.07-1,.13-1.4.21-1.57.83-1.92,1.33-2.2s.66-.37.56-1a2.48,2.48,0,0,1,.28-1.45,3,3,0,0,0,.25-2.14c-.25-.87-.91-1.19-1.92-1.67a14.24,14.24,0,0,1-3.47-2.22,4.05,4.05,0,0,0-2.87-1.33c-.49,0-.7,0-1-1.19a4.87,4.87,0,0,1-.17-.84l0-.11.48.22a3.56,3.56,0,0,1,2-1.59l.7-.26a7.68,7.68,0,0,0,2.4-1.22l.14-.12a1.29,1.29,0,0,1,.58-.36.71.71,0,0,1,.51.24,2.87,2.87,0,0,0,.63.43c1.24.61,1.79-.09,2-.43a7.4,7.4,0,0,1,.61-.76,5,5,0,0,0,1.37-2.12,2.63,2.63,0,0,0-1.06-2.27l-.4-.3a3.58,3.58,0,0,1-.53-.43,1.54,1.54,0,0,1,0-2l-.16-.14q.65-.25,1.34-.45a3.09,3.09,0,0,0,.49,2.22l.07.1.11.06a2.22,2.22,0,0,0,1,.26,2.25,2.25,0,0,0,1.34-.43,3.91,3.91,0,0,0,.54-.51,1.52,1.52,0,0,1,1.11-.64l.37-.09a1.61,1.61,0,0,0,1.21-1,2.55,2.55,0,0,0,.07-.29v0a14.77,14.77,0,0,1,3.67,1.08,2.14,2.14,0,0,1-1.08.74l-.28.09c-.55.17-.77.24-.91.41l-.7.83h.7l.08.2a.38.38,0,0,1,0,.36,3.63,3.63,0,0,1-2.37.78h-.14l-.11.08a2.54,2.54,0,0,0-1.08,1.58,1.93,1.93,0,0,0,.64,1.58c.32.34.3.54.3.6,0,.3-.35.56-.88,1a3.92,3.92,0,0,0-1.85,4.66c.65,2.53,2.25,3.06,3.48,3.06a5.83,5.83,0,0,0,2.26-.51c.26.18,1.74,1.37,1.2,5.26-.24,1.73,0,3.08.63,3.82a1.5,1.5,0,0,0,1.16.54h.07a3.58,3.58,0,0,0,2.46-1.7c2.29-3.07,2.81-4.46,2.43-6.43-.2-1.06.39-1.51,1.13-2,.42-.25.76-.45.76-.82s.15-.37.41-.56c.58-.44.79-.87.19-1.9-.08-.13-.19-.37-.11-.5a.46.46,0,0,1,.34-.15,14.88,14.88,0,0,1-14.67,17.5Z"/><path class="cls-27" d="M1006.08,541.43a1.77,1.77,0,0,0-.43-.67h0a1.83,1.83,0,0,0-.7-.41,2.43,2.43,0,0,0-2.68.45l-5,4.89-15-2.6-1.56,2.15,11.81,5.73-3.81,3.74-4.93-.09-1.14,1.1,4.18,3.34,3.47,4,1.13-1.1-.11-4.77,3.85-3.7,6,11.39,2.22-1.52-2.76-14.45,5-4.89A2.23,2.23,0,0,0,1006.08,541.43Z"/><polygon class="cls-28" points="854 656 834 656 834 644 844 638 854 644 854 656"/><line class="cls-27" x1="856" y1="656" x2="832" y2="656"/><polyline class="cls-28" points="830 642.33 844 633.67 858 642.33"/><path class="cls-27" d="M843.06,648h1.87a1.06,1.06,0,0,1,1.06,1.06V656a0,0,0,0,1,0,0h-4a0,0,0,0,1,0,0v-6.94A1.06,1.06,0,0,1,843.06,648Z"/><path class="cls-29" d="M957.08,618h13.83a3.08,3.08,0,0,1,3.08,3.08V640a1,1,0,0,1-1,1H955a1,1,0,0,1-1-1V621.08A3.08,3.08,0,0,1,957.08,618Z"/><line class="cls-29" x1="956" y1="633" x2="972" y2="633"/><line class="cls-27" x1="957" y1="637" x2="960" y2="637"/><line class="cls-27" x1="968" y1="637" x2="971" y2="637"/><path class="cls-27" d="M977,629v-2.46a1.54,1.54,0,0,0-1.54-1.54H974"/><path class="cls-27" d="M951,629v-2.46a1.54,1.54,0,0,1,1.54-1.54H954"/><path class="cls-30" d="M958,642v1h-1v-1h1m0-2h-1a2,2,0,0,0-2,2v1a2,2,0,0,0,2,2h1a2,2,0,0,0,2-2v-1a2,2,0,0,0-2-2Z"/><path class="cls-30" d="M971,642v1h-1v-1h1m0-2h-1a2,2,0,0,0-2,2v1a2,2,0,0,0,2,2h1a2,2,0,0,0,2-2v-1a2,2,0,0,0-2-2Z"/><line class="cls-31" x1="970" y1="622" x2="963" y2="630"/><line class="cls-31" x1="964" y1="622" x2="959" y2="628"/><path class="cls-27" d="M351.5,518a9.21,9.21,0,0,0-9.41,9.16c0,6.75,6.28,13.06,9.41,16.81,3.13-3.75,9.41-10.06,9.41-16.81C360.91,521.38,355.89,518,351.5,518Zm-.1,14.25a4.47,4.47,0,1,1,4.32-4.47A4.39,4.39,0,0,1,351.4,532.25Z"/><path class="cls-31" d="M346,543.27c-1.83.42-3,1-3,1.73,0,1.25,3.81,2.27,8.5,2.27s8.5-1,8.5-2.27c0-.69-1.17-1.31-3-1.73"/><path class="cls-32" d="M322.76,614.62h-2v0H320v0h-2.19v0H306.33v0h-1.75v0h-2.06v-.07a6.65,6.65,0,0,1,1-13.22l.55,0a8.47,8.47,0,0,1,14.57-1.59,3.58,3.58,0,0,1,1-.14,3.64,3.64,0,0,1,3.56,2.93,6.1,6.1,0,0,1-.41,12Z"/><path class="cls-30" d="M418.11,636a1.37,1.37,0,0,1,1.08.48l.82,1L409,647l11,9.49-.82,1a1.37,1.37,0,0,1-1.08.48,1.62,1.62,0,0,1-.91-.28l-10.85-8.52-2,1.66A4.06,4.06,0,0,1,403,655a3.88,3.88,0,0,1-2.46.88l-.42,0a3.89,3.89,0,0,1-2.64-1.44,3.94,3.94,0,0,1,.58-5.54,3.89,3.89,0,0,1,2.46-.88l.42,0a3.92,3.92,0,0,1,.42.09l1.76-1.18-1.76-1.18a3.9,3.9,0,0,1-.42.09l-.42,0a3.93,3.93,0,0,1-3.92-3.94,4,4,0,0,1,.87-2.48,3.9,3.9,0,0,1,2.64-1.44l.42,0a3.88,3.88,0,0,1,2.46.88,4.06,4.06,0,0,1,1.25,4.24l2,1.66,10.85-8.52a1.61,1.61,0,0,1,.91-.28m-17.53,7.76h.19a1.79,1.79,0,0,0,1.6-1.78,1.78,1.78,0,0,0-.66-1.39,1.76,1.76,0,0,0-1.12-.4h-.19a1.76,1.76,0,0,0-1.2.65,1.83,1.83,0,0,0,.26,2.52,1.78,1.78,0,0,0,1.12.4m5.71,4.29a1.07,1.07,0,1,0-1.07-1.07,1.07,1.07,0,0,0,1.07,1.07m-5.7,5.73a1.76,1.76,0,0,0,1.12-.4,1.79,1.79,0,0,0-.93-3.17h-.18a1.78,1.78,0,0,0-1.13.4,1.83,1.83,0,0,0-.26,2.52,1.76,1.76,0,0,0,1.2.65h.19m17.52-19.53h0a3.34,3.34,0,0,0-1.91.59l0,0,0,0-9.75,7.66-.17-.14a5.76,5.76,0,0,0-2-4.88,5.67,5.67,0,0,0-3.57-1.27,5.74,5.74,0,0,0-.6,0,5.64,5.64,0,0,0-3.82,2.08A5.69,5.69,0,0,0,397.9,647a5.69,5.69,0,0,0-1.73,8.59,5.63,5.63,0,0,0,3.82,2.08,5.76,5.76,0,0,0,.6,0,5.67,5.67,0,0,0,3.57-1.27,5.75,5.75,0,0,0,2-4.88l.17-.14,9.75,7.66,0,0,0,0a3.35,3.35,0,0,0,1.91.59,3.1,3.1,0,0,0,2.44-1.13l.81-1,1.07-1.32-1.29-1.11L411.69,647l9.45-8.17,1.28-1.11-1.07-1.32-.81-1a3.1,3.1,0,0,0-2.44-1.13ZM400.58,642h0s0-.05,0-.07l0,0,0,0Zm0,10h0a.08.08,0,0,1,0-.09l0,0,0,0Z"/><path class="cls-33" d="M418.3,650.67S431,645,430.48,639.28"/><path class="cls-33" d="M407.19,665.11s-.26-7,5.88-10.64"/><path class="cls-30" d="M478,502.18a.85.85,0,0,0-.62-.27.86.86,0,0,0-.62.26l-.14.14a.92.92,0,0,0,0,1.26,14.45,14.45,0,0,1,0,19.85.91.91,0,0,0,0,1.26l.14.14a.88.88,0,0,0,1.23,0,16.48,16.48,0,0,0,0-22.63Z"/><path class="cls-30" d="M472.76,507.36a.86.86,0,0,0-.62.26l-.07.07a.92.92,0,0,0,0,1.26,6.63,6.63,0,0,1,0,9.1.92.92,0,0,0,0,1.26l.07.07a.88.88,0,0,0,1.24,0,8.55,8.55,0,0,0,0-11.74A.85.85,0,0,0,472.76,507.36Z"/><path class="cls-30" d="M456.4,502.31l-.14-.14a.85.85,0,0,0-.61-.26.84.84,0,0,0-.62.27,16.48,16.48,0,0,0,0,22.63.88.88,0,0,0,1.23,0l.14-.14a.91.91,0,0,0,0-1.26,14.45,14.45,0,0,1,0-19.85A.91.91,0,0,0,456.4,502.31Z"/><path class="cls-30" d="M460.93,507.69l-.07-.07a.87.87,0,0,0-.61-.26.85.85,0,0,0-.62.27,8.55,8.55,0,0,0,0,11.74.88.88,0,0,0,1.23,0l.07-.07a.91.91,0,0,0,0-1.26,6.63,6.63,0,0,1,0-9.1A.92.92,0,0,0,460.93,507.69Z"/><circle class="cls-30" cx="466.5" cy="513.5" r="2.35"/></svg>