<?xml version="1.0" encoding="utf-8"?>
<!-- Generator: Adobe Illustrator 21.0.2, SVG Export Plug-In . SVG Version: 6.00 Build 0)  -->
<svg version="1.1" id="Layer_3" xmlns="http://www.w3.org/2000/svg" xmlns:xlink="http://www.w3.org/1999/xlink" x="0px" y="0px"
	 viewBox="0 0 1348 2875" style="enable-background:new 0 0 1348 2875;" xml:space="preserve">
<style type="text/css">
	.st0{opacity:0.3;}
	.st1{fill:none;stroke:#0073AE;stroke-width:3;stroke-linecap:round;stroke-linejoin:round;}
	.st2{fill:none;stroke:#0073AE;stroke-width:3;stroke-linecap:round;stroke-linejoin:round;stroke-dasharray:0,8;}
	.st3{fill:none;stroke:#0073AE;stroke-width:3;stroke-linecap:round;stroke-linejoin:round;stroke-dasharray:0,6.75;}
	.st4{fill:none;stroke:#0073AE;stroke-width:3;stroke-linecap:round;stroke-linejoin:round;stroke-dasharray:0,7;}
	.st5{fill:none;stroke:#0073AE;stroke-width:3;stroke-linecap:round;stroke-linejoin:round;stroke-dasharray:0,8.5;}
	.st6{fill:none;stroke:#0073AE;stroke-width:3;stroke-linecap:round;stroke-linejoin:round;stroke-dasharray:0,6.7692;}
	.st7{fill:none;stroke:#0073AE;stroke-width:3;stroke-linecap:round;stroke-linejoin:round;stroke-dasharray:0,6.6667;}
	.st8{fill:none;stroke:#0073AE;stroke-width:3;stroke-linecap:round;stroke-linejoin:round;stroke-dasharray:0,6.25;}
	.st9{fill:none;stroke:#0073AE;stroke-width:3;stroke-linecap:round;stroke-linejoin:round;stroke-dasharray:0,7.15;}
	.st10{fill:none;stroke:#0073AE;stroke-width:3;stroke-linecap:round;stroke-linejoin:round;stroke-dasharray:0,7.2;}
	.st11{fill:none;stroke:#0073AE;stroke-width:3;stroke-linecap:round;stroke-linejoin:round;stroke-dasharray:0,6.8333;}
	.st12{fill:none;stroke:#0073AE;stroke-width:3;stroke-linecap:round;stroke-linejoin:round;stroke-dasharray:0,7.6;}
	.st13{fill:none;stroke:#0073AE;stroke-width:3;stroke-linecap:round;stroke-linejoin:round;stroke-dasharray:0,7.5;}
	.st14{fill:none;stroke:#0073AE;stroke-width:3;stroke-linecap:round;stroke-linejoin:round;stroke-dasharray:0,7.0909;}
	.st15{fill:none;stroke:#0073AE;stroke-width:3;stroke-linecap:round;stroke-linejoin:round;stroke-dasharray:0,6.8;}
	.st16{opacity:0.2;fill:none;stroke:#0073AE;stroke-width:2;stroke-linecap:round;stroke-linejoin:round;stroke-miterlimit:10;}
	.st17{fill:#FFFFFF;stroke:#0073AE;stroke-width:2;stroke-miterlimit:10;}
	.st18{fill:#FFDBB2;}
	.st19{opacity:0.5;fill:#FF8800;}
	.st20{fill:#0073AE;}
	.st21{fill:#B2D5E6;stroke:#0073AE;stroke-width:2;stroke-linecap:round;stroke-linejoin:round;stroke-miterlimit:10;}
	.st22{fill:none;stroke:#FFDBB2;stroke-width:2;stroke-miterlimit:10;}
	.st23{fill:#FFFFFF;}
	.st24{clip-path:url(#SVGID_2_);}
	.st25{fill:#FFFFFF;stroke:#0073AE;stroke-width:2;stroke-linecap:round;stroke-linejoin:round;stroke-miterlimit:10;}
	.st26{fill:none;stroke:#0073AE;stroke-width:2;stroke-linecap:round;stroke-linejoin:round;stroke-miterlimit:10;}
	.st27{fill:#B2D5E6;}
	.st28{fill:none;stroke:#0073AE;stroke-width:2;stroke-linejoin:round;stroke-miterlimit:10;}
	.st29{fill:none;stroke:#0073AE;stroke-width:1.75;stroke-linecap:round;stroke-linejoin:round;stroke-miterlimit:10;}
	.st30{fill-rule:evenodd;clip-rule:evenodd;fill:none;stroke:#0073AE;stroke-width:2;stroke-miterlimit:10;}
</style>
<g>
	<g class="st0">
		<g>
			<line class="st1" x1="521.5" y1="856.5" x2="521.5" y2="856.5"/>
			<line class="st1" x1="527.5" y1="856.5" x2="527.5" y2="856.5"/>
			<line class="st2" x1="527.5" y1="864.5" x2="527.5" y2="868.5"/>
			<line class="st1" x1="527.5" y1="872.5" x2="527.5" y2="872.5"/>
			<line class="st3" x1="534.3" y1="872.5" x2="551.1" y2="872.5"/>
			<line class="st1" x1="554.5" y1="872.5" x2="554.5" y2="872.5"/>
		</g>
	</g>
	<g class="st0">
		<g>
			<line class="st1" x1="352.5" y1="883.5" x2="352.5" y2="883.5"/>
			<line class="st4" x1="359.5" y1="883.5" x2="461" y2="883.5"/>
			<line class="st1" x1="464.5" y1="883.5" x2="464.5" y2="883.5"/>
			<line class="st5" x1="464.5" y1="892" x2="464.5" y2="896.3"/>
			<line class="st1" x1="464.5" y1="900.5" x2="464.5" y2="900.5"/>
			<line class="st6" x1="471.3" y1="900.5" x2="549.1" y2="900.5"/>
			<line class="st1" x1="552.5" y1="900.5" x2="552.5" y2="900.5"/>
		</g>
	</g>
	<g class="st0">
		<g>
			<line class="st1" x1="389.5" y1="937.5" x2="389.5" y2="937.5"/>
			<line class="st7" x1="396.2" y1="937.5" x2="406.2" y2="937.5"/>
			<line class="st1" x1="409.5" y1="937.5" x2="409.5" y2="937.5"/>
			<line class="st8" x1="409.5" y1="931.3" x2="409.5" y2="915.6"/>
			<line class="st1" x1="409.5" y1="912.5" x2="409.5" y2="912.5"/>
			<line class="st9" x1="416.6" y1="912.5" x2="548.9" y2="912.5"/>
			<line class="st1" x1="552.5" y1="912.5" x2="552.5" y2="912.5"/>
		</g>
	</g>
	<g class="st0">
		<g>
			<line class="st1" x1="471.5" y1="966.5" x2="471.5" y2="966.5"/>
			<line class="st7" x1="478.2" y1="966.5" x2="508.2" y2="966.5"/>
			<line class="st1" x1="511.5" y1="966.5" x2="511.5" y2="966.5"/>
			<line class="st10" x1="511.5" y1="959.3" x2="511.5" y2="934.1"/>
			<line class="st1" x1="511.5" y1="930.5" x2="511.5" y2="930.5"/>
			<line class="st11" x1="518.3" y1="930.5" x2="549.1" y2="930.5"/>
			<line class="st1" x1="552.5" y1="930.5" x2="552.5" y2="930.5"/>
		</g>
	</g>
</g>
<g>
	<g class="st0">
		<g>
			<line class="st1" x1="848.5" y1="846.5" x2="848.5" y2="846.5"/>
			<line class="st12" x1="840.9" y1="846.5" x2="814.3" y2="846.5"/>
			<line class="st1" x1="810.5" y1="846.5" x2="810.5" y2="846.5"/>
			<line class="st10" x1="810.5" y1="853.7" x2="810.5" y2="878.9"/>
			<line class="st1" x1="810.5" y1="882.5" x2="810.5" y2="882.5"/>
			<line class="st11" x1="803.7" y1="882.5" x2="772.9" y2="882.5"/>
			<line class="st1" x1="769.5" y1="882.5" x2="769.5" y2="882.5"/>
		</g>
	</g>
	<g class="st0">
		<g>
			<line class="st1" x1="924.5" y1="874.5" x2="924.5" y2="874.5"/>
			<line class="st13" x1="917" y1="874.5" x2="913.3" y2="874.5"/>
			<line class="st1" x1="909.5" y1="874.5" x2="909.5" y2="874.5"/>
			<line class="st4" x1="909.5" y1="881.5" x2="909.5" y2="899"/>
			<line class="st1" x1="909.5" y1="902.5" x2="909.5" y2="902.5"/>
			<line class="st4" x1="902.5" y1="902.5" x2="773" y2="902.5"/>
			<line class="st1" x1="769.5" y1="902.5" x2="769.5" y2="902.5"/>
		</g>
	</g>
	<g class="st0">
		<g>
			<line class="st1" x1="970.5" y1="928.5" x2="970.5" y2="928.5"/>
			<line class="st11" x1="963.7" y1="928.5" x2="850.9" y2="928.5"/>
			<line class="st1" x1="847.5" y1="928.5" x2="847.5" y2="928.5"/>
			<line class="st13" x1="847.5" y1="921" x2="847.5" y2="917.3"/>
			<line class="st1" x1="847.5" y1="913.5" x2="847.5" y2="913.5"/>
			<line class="st14" x1="840.4" y1="913.5" x2="773" y2="913.5"/>
			<line class="st1" x1="769.5" y1="913.5" x2="769.5" y2="913.5"/>
		</g>
	</g>
	<g class="st0">
		<g>
			<line class="st1" x1="852.5" y1="967.5" x2="852.5" y2="967.5"/>
			<line class="st4" x1="845.5" y1="967.5" x2="807" y2="967.5"/>
			<line class="st1" x1="803.5" y1="967.5" x2="803.5" y2="967.5"/>
			<line class="st12" x1="803.5" y1="959.9" x2="803.5" y2="933.3"/>
			<line class="st1" x1="803.5" y1="929.5" x2="803.5" y2="929.5"/>
			<line class="st15" x1="796.7" y1="929.5" x2="772.9" y2="929.5"/>
			<line class="st1" x1="769.5" y1="929.5" x2="769.5" y2="929.5"/>
		</g>
	</g>
</g>
<circle class="st16" cx="878.5" cy="847.5" r="24.5"/>
<circle class="st16" cx="491.5" cy="856.5" r="24.5"/>
<circle class="st16" cx="323.5" cy="883.5" r="24.5"/>
<circle class="st16" cx="361.5" cy="937.5" r="24.5"/>
<circle class="st16" cx="440.5" cy="967.5" r="24.5"/>
<circle class="st16" cx="954.5" cy="874.5" r="24.5"/>
<circle class="st16" cx="1000.5" cy="928.5" r="24.5"/>
<circle class="st16" cx="881.5" cy="967.5" r="24.5"/>
<g>
	<g>
		<path class="st17" d="M755,983.5c0,3.3-2.7,6.1-6.1,6.1H576.1c-3.3,0-6.1-2.7-6.1-6.1V854.1c0-3.3,2.7-6.1,6.1-6.1h172.9
			c3.3,0,6.1,2.7,6.1,6.1V983.5"/>
		<polyline class="st18" points="748,971 577,971 577,855.2 748,855.2 748,971 		"/>
		<polyline class="st19" points="748,858 577,858 577,855.2 748,855.2 748,858 		"/>
		<path class="st19" d="M727,971H598v-5.8c0-0.6,0.5-1.2,1.2-1.2h126.7c0.6,0,1.2,0.5,1.2,1.2V971"/>
		<circle class="st20" cx="662.5" cy="851.8" r="1.5"/>
		<path class="st21" d="M686.9,978c-1.2,2.9-4.1,5-7.4,5h-35c-3.3,0-6.2-2.1-7.4-5H545v3.7c0,4.6,3.7,8.3,8.3,8.3h217.4
			c4.6,0,8.3-3.7,8.3-8.3V978H686.9z"/>
		<line class="st22" x1="718" y1="962" x2="718" y2="971"/>
	</g>
	<path class="st23" d="M688.4,951h-52.8c-0.9,0-1.6-0.7-1.6-1.6v-73.8c0-0.9,0.7-1.6,1.6-1.6h52.8c0.9,0,1.6,0.7,1.6,1.6v73.8
		C690,950.3,689.3,951,688.4,951z"/>
	<g>
		<circle class="st18" cx="662" cy="907" r="18"/>
		<g>
			<defs>
				<circle id="SVGID_1_" cx="662" cy="907" r="18"/>
			</defs>
			<clipPath id="SVGID_2_">
				<use xlink:href="#SVGID_1_"  style="overflow:visible;"/>
			</clipPath>
			<g class="st24">
				<g>
					<g>
						<path class="st25" d="M675.6,920.4l-1.3-4.7c-0.1-0.5-0.6-1.1-1.1-1.3l-7.5-3.3c0,0,0,0,0,0v-1.4c1.1-1.4,1.8-3.4,1.8-5.7
							v-1.8c0-3.2-2.5-5.8-5.5-5.8l0,0l0,0l0,0c-3.1,0-5.5,2.6-5.5,5.8v1.8c0,2.3,0.7,4.3,1.8,5.7v1.4c0,0,0,0,0,0l-7.5,3.3
							c-0.5,0.2-0.9,0.8-1.1,1.3l-1.3,4.7c-0.1,0.5,0.2,0.9,0.7,0.9l12.9,6.6l0,0l12.9-6.6C675.4,921.3,675.7,920.9,675.6,920.4z"/>
					</g>
				</g>
			</g>
		</g>
		<circle class="st26" cx="662" cy="907" r="18"/>
	</g>
	<path class="st18" d="M656.5,946h-12c-1.9,0-3.5-1.6-3.5-3.5l0,0c0-1.9,1.6-3.5,3.5-3.5h12c1.9,0,3.5,1.6,3.5,3.5l0,0
		C660,944.4,658.4,946,656.5,946z"/>
	<path class="st27" d="M679.5,946h-12c-1.9,0-3.5-1.6-3.5-3.5l0,0c0-1.9,1.6-3.5,3.5-3.5h12c1.9,0,3.5,1.6,3.5,3.5l0,0
		C683,944.4,681.4,946,679.5,946z"/>
</g>
<path class="st26" d="M988.2,935.1l11.1-9.6c-0.7-3,0.2-6.2,2.7-8.4c2.8-2.4,6.7-2.7,9.8-1l-6.1,5.5l3.7,4.3l6-5.5
	c1.3,3.3,0.5,7.1-2.3,9.5c-2.5,2.2-5.8,2.7-8.7,1.5l-11.1,9.6c-1.7,1.4-4.2,1.3-5.6-0.3l0,0C986.4,939.1,986.6,936.6,988.2,935.1
	L988.2,935.1z"/>
<g>
	<path class="st26" d="M869,966v-1c0-6.6,5.4-12,12-12h1c6.6,0,12,5.4,12,12v1"/>
	<path class="st26" d="M894,976L894,976c-1.7,0-3-1.3-3-3v-4c0-1.7,1.3-3,3-3l0,0c1.7,0,3,1.3,3,3v4C897,974.7,895.7,976,894,976z"
		/>
	<path class="st26" d="M869,976L869,976c-1.7,0-3-1.3-3-3v-4c0-1.7,1.3-3,3-3l0,0c1.7,0,3,1.3,3,3v4C872,974.7,870.7,976,869,976z"
		/>
	<path class="st26" d="M894,976c0,0,0,7-13,7"/>
	<g>
		<path class="st20" d="M881.5,979c0.8,0,1.5,0.7,1.5,1.5s-0.7,1.5-1.5,1.5s-1.5-0.7-1.5-1.5S880.7,979,881.5,979 M881.5,977.3
			c-1.8,0-3.3,1.5-3.3,3.3s1.5,3.3,3.3,3.3s3.3-1.5,3.3-3.3S883.3,977.3,881.5,977.3L881.5,977.3z"/>
	</g>
	<path class="st26" d="M871,959l0.8,0.7c0.6,0.6,1.6,0.5,2.1-0.2c1.8-2.2,4.3-3.6,7.2-3.6h0.8c2.8,0,5.3,1.3,7.1,3.4
		c0.6,0.7,1.6,0.6,2.2-0.1l0.8-1"/>
</g>
<g>
	<path class="st26" d="M954.9,861.5c-5.3,0-9.6,4.2-9.6,9.3c0,6.3,4.6,6.9,5.2,10.4c0,1,0.8,1.8,1.7,1.8h5.2c1,0,1.7-0.8,1.7-1.8
		c0.6-3.6,5.2-4,5.2-10.4C964.5,865.7,960.2,861.5,954.9,861.5z"/>
	<line class="st26" x1="952" y1="886" x2="958" y2="886"/>
	<line class="st28" x1="955" y1="874" x2="955" y2="883"/>
	<line class="st26" x1="952" y1="889" x2="958" y2="889"/>
	<line class="st26" x1="954" y1="891" x2="956" y2="891"/>
	<g>
		<path class="st20" d="M955,869c1.1,0,2,0.9,2,2s-0.9,2-2,2s-2-0.9-2-2S953.9,869,955,869 M955,867c-2.2,0-4,1.8-4,4s1.8,4,4,4
			s4-1.8,4-4S957.2,867,955,867L955,867z"/>
	</g>
</g>
<g>
	<path class="st26" d="M879,833c8.3,0,15,6.7,15,15s-6.7,15-15,15s-15-6.7-15-15c0-2.7,0.7-5.2,1.9-7.4"/>
	<polyline class="st28" points="862.3,839.8 867.3,838.7 868.4,843.7 	"/>
	<g>
		<path class="st20" d="M878.5,847c0.8,0,1.5,0.7,1.5,1.5s-0.7,1.5-1.5,1.5s-1.5-0.7-1.5-1.5S877.7,847,878.5,847 M878.5,845.3
			c-1.8,0-3.3,1.5-3.3,3.3s1.5,3.3,3.3,3.3s3.3-1.5,3.3-3.3S880.3,845.3,878.5,845.3L878.5,845.3z"/>
	</g>
	<g>
		<line class="st29" x1="880" y1="847" x2="886" y2="841"/>
	</g>
	<line class="st29" x1="880" y1="850" x2="884" y2="854"/>
</g>
<path class="st30" d="M363.9,943.1c0.6,0.3,1.3,0.4,1.8-0.2c0.5-0.5,2.1-2.5,2.1-2.5s0.5-0.6,1.3-0.1c0.8,0.5,2.2,1.5,5.1,3.4
	c0.5,0.4,0.3,1,0.3,1s-2.1,3.4-5.3,5c-0.7,0.5-2.4,0-2.4,0s-13.6-3.1-18.3-17.1c-0.3-0.6,0-1.8,0-1.8s0.4-2.5,4.1-5.7
	c0.6-0.5,1.3,0,1.3,0s1.8,1.9,4.1,5.1c0.3,0.3,0.1,0.9-0.1,1.1c-1.6,1.3-2.5,2.9-2.5,2.9s-0.2,0.6,0.2,1.1
	C355.9,935.8,358.8,940.5,363.9,943.1z"/>
<g>
	<path class="st30" d="M432.3,982h-3.5c-1.5,0-2.8-1.2-2.8-2.8v-23.5c0-1.5,1.2-2.8,2.8-2.8h3.5c1.5,0,2.8,1.2,2.8,2.8v23.5
		C435,980.8,433.8,982,432.3,982z"/>
	<path class="st30" d="M450.3,980H435v-25h15.3c2,0,3.7,1.7,3.7,3.7v17.6C454,978.3,452.3,980,450.3,980z"/>
	<path class="st30" d="M448.8,965h-8.6c-0.7,0-1.2-0.5-1.2-1.2v-4.6c0-0.7,0.5-1.2,1.2-1.2h8.6c0.7,0,1.2,0.5,1.2,1.2v4.6
		C450,964.5,449.5,965,448.8,965z"/>
	<g>
		<line class="st26" x1="439" y1="969" x2="440" y2="969"/>
		<line class="st26" x1="444" y1="969" x2="445" y2="969"/>
		<line class="st26" x1="449" y1="969" x2="450" y2="969"/>
	</g>
	<g>
		<line class="st26" x1="439" y1="972" x2="440" y2="972"/>
		<line class="st26" x1="444" y1="972" x2="445" y2="972"/>
		<line class="st26" x1="449" y1="972" x2="450" y2="972"/>
	</g>
	<g>
		<line class="st26" x1="439" y1="975" x2="440" y2="975"/>
		<line class="st26" x1="444" y1="975" x2="445" y2="975"/>
		<line class="st26" x1="449" y1="975" x2="450" y2="975"/>
	</g>
</g>
<path class="st26" d="M328.7,898h-10.3c-1.8,0-3.3-1.5-3.3-3.3v-22.3c0-1.8,1.5-3.3,3.3-3.3h10.3c1.8,0,3.3,1.5,3.3,3.3v22.3
	C332,896.5,330.5,898,328.7,898z"/>
<line class="st26" x1="322" y1="873" x2="325" y2="873"/>
<line class="st26" x1="323" y1="894" x2="324" y2="894"/>
<line class="st26" x1="316" y1="890" x2="331" y2="890"/>
<g>
	<path class="st26" d="M504.4,868h-25.7c-1.5,0-2.6-1.2-2.6-2.6v-18.7c0-1.5,1.2-2.6,2.6-2.6h25.7c1.5,0,2.6,1.2,2.6,2.6v18.7
		C507,866.8,505.8,868,504.4,868z"/>
	<line class="st26" x1="487.5" y1="872" x2="495.5" y2="872"/>
	<line class="st26" x1="477" y1="863" x2="506" y2="863"/>
</g>
</svg>
